<svg xmlns="http://www.w3.org/2000/svg" viewBox="0 0 64 64" role="img" aria-labelledby="title">
  <title>PWR Tecnologia</title>
  <defs>
    <linearGradient id="pwrGradient" x1="0%" y1="0%" x2="100%" y2="100%">
      <stop offset="0%" stop-color="#38bdf8" />
      <stop offset="100%" stop-color="#1d4ed8" />
    </linearGradient>
    <linearGradient id="pwrGlow" x1="50%" y1="0%" x2="50%" y2="100%">
      <stop offset="0%" stop-color="rgba(255,255,255,0.45)" />
      <stop offset="100%" stop-color="rgba(255,255,255,0)" />
    </linearGradient>
  </defs>
  <rect width="64" height="64" rx="14" fill="#0f172a" />
  <rect width="52" height="52" x="6" y="6" rx="12" fill="url(#pwrGradient)" opacity="0.2" />
  <path
    d="M20 44V20h9.8c5.2 0 8.7 2.6 8.7 7 0 3.8-2.4 6-5.5 6.7L41 44h-6.8l-6.8-9.4H26V44zM26 24v6.6h3.1c2.3 0 3.9-1 3.9-3.3 0-2-1.4-3.3-3.9-3.3z"
    fill="#f8fafc"
  />
  <path
    d="M44 20c0 3.7-2.9 6.6-6.6 6.6-3.7 0-6.6-2.9-6.6-6.6S33.7 13.4 37.4 13.4C41.1 13.4 44 16.3 44 20z"
    fill="url(#pwrGlow)"
    transform="translate(2 4)"
  />
</svg>
